<?xml version="1.0" encoding="UTF-8" standalone="no"?>
<svg
   id="svg1028"
   version="1.1"
   viewBox="0 0 79.374998 52.916668"
   height="200"
   width="300"
   sodipodi:docname="tbm-logo-white.svg"
   inkscape:version="1.1.2 (0a00cf5339, 2022-02-04)"
   xmlns:inkscape="http://www.inkscape.org/namespaces/inkscape"
   xmlns:sodipodi="http://sodipodi.sourceforge.net/DTD/sodipodi-0.dtd"
   xmlns="http://www.w3.org/2000/svg"
   xmlns:svg="http://www.w3.org/2000/svg"
   xmlns:rdf="http://www.w3.org/1999/02/22-rdf-syntax-ns#"
   xmlns:cc="http://creativecommons.org/ns#"
   xmlns:dc="http://purl.org/dc/elements/1.1/">
  <sodipodi:namedview
     id="namedview34"
     pagecolor="#ffffff"
     bordercolor="#666666"
     borderopacity="1.0"
     inkscape:pageshadow="2"
     inkscape:pageopacity="0.0"
     inkscape:pagecheckerboard="0"
     showgrid="false"
     inkscape:zoom="2.02"
     inkscape:cx="113.61386"
     inkscape:cy="127.9703"
     inkscape:window-width="1850"
     inkscape:window-height="1016"
     inkscape:window-x="0"
     inkscape:window-y="0"
     inkscape:window-maximized="1"
     inkscape:current-layer="svg1028" />
  <defs
     id="defs1022" />
  <metadata
     id="metadata1025">
    <rdf:RDF>
      <cc:Work
         rdf:about="">
        <dc:format>image/svg+xml</dc:format>
        <dc:type
           rdf:resource="http://purl.org/dc/dcmitype/StillImage" />
      </cc:Work>
    </rdf:RDF>
  </metadata>
  <g
     transform="translate(0,-244.08332)"
     id="layer1">
    <g
       style="fill:#ffffff;fill-opacity:1"
       transform="matrix(0.33874393,0,0,-0.33874393,-3.941476,1142.4887)"
       id="g3136-4-2-3">
      <path
         id="rect3925-9-0-3-7-4-3-7-2-7-5-6"
         d="m 113.43516,2648.1258 v -1.6905 -15.7197 c -6.14232,-0.5716 -13.23196,0.7403 -19.305774,3.4761 l -0.95866,0.4318 -0.63672,-0.8416 c -6.62159,-8.7615 -15.96579,-12.2259 -29.11963,-10.2602 l -1.46365,0.212 -0.0659,-1.5003 c -1.52138,-34.572 -25.956885,-55.6343 -45.702959,-69.8973 l -3.403011,-2.4663 h 4.178784 67.013906 l 0.60743,-0.3001 0.2709,0.3001 0.39516,0.4392 c 0,0 0,0.01 0,0.01 4.56853,5.078 8.95572,10.2416 13.02661,15.5075 0.008,0.01 0.0148,0.015 0.0224,0.022 2.708514,3.5047 5.273364,7.0515 7.662274,10.6555 1.19564,1.8038 2.34621,3.6211 3.4469,5.4521 0.99372,1.6532 1.93817,3.3219 2.84686,4.9985 0.0985,0.1817 0.20984,0.3597 0.30723,0.5415 0.0112,0.023 0.0265,0.043 0.0377,0.066 0.29751,0.5565 0.55405,1.1239 0.84161,1.6832 v -38.4871 -1.6832 h 1.65398 11.87034 1.65391 v 1.6832 36.8405 c 0.54686,-1.0236 1.05271,-2.0591 1.63196,-3.0737 0.81849,-1.4335 1.71877,-2.8429 2.59803,-4.2593 0.51777,-0.8342 0.99192,-1.6817 1.52952,-2.5102 1.20369,-1.8548 2.481,-3.6905 3.77629,-5.518 0.23041,-0.3252 0.43998,-0.6562 0.67324,-0.9806 1.06657,-1.4836 2.19568,-2.9464 3.31522,-4.413 0.51471,-0.6743 1.00447,-1.3562 1.52952,-2.0272 v -0.01 c 0.0689,-0.088 0.13566,-0.1754 0.20494,-0.2634 l 1.9394,1.8808 c -0.0911,0.1162 -0.17274,0.2349 -0.26343,0.3511 -0.0738,0.094 -0.13866,0.1911 -0.21207,0.2855 -1.80312,2.3198 -3.54746,4.6556 -5.21065,7.011 -0.36082,0.5108 -0.67844,1.0315 -1.03187,1.5441 -1.34246,1.9467 -2.6703,3.8955 -3.90069,5.8693 -0.58721,0.9422 -1.09438,1.9054 -1.65392,2.8542 -0.9195,1.5587 -1.86049,3.1137 -2.70046,4.691 -0.62816,1.1798 -1.16111,2.3806 -1.74174,3.5714 -0.16302,0.3338 -0.32415,0.6678 -0.48303,1.0026 v 14.4097 c 8.53403,-13.792 20.14742,-25.6702 34.27172,-32.3909 l 4.04705,1.149 c -16.11859,6.6548 -29.28372,20.4647 -38.31881,36.4526 v 2.7444 l 14.38782,0.1168 h 1.64664 v 1.6687 10.3188 1.6759 l -1.64664,0.022 H 142.871 c 1.45688,0.4545 2.89929,0.9553 4.28857,1.5442 6.22067,-7.7194 14.93248,-11.3924 25.89225,-10.919 1.76797,-16.4038 7.04827,-31.7915 16.16614,-44.9125 l 0.52693,0.3657 c -9.04604,13.0176 -14.29587,28.2889 -16.0564,44.5906 0.99432,0.057 1.97694,0.094 3.00779,0.2195 1.14954,-18.3158 8.53392,-32.9095 18.12754,-44.693 l 2.4809,1.1709 c -9.77741,11.821 -17.22155,26.5052 -18.03967,45.0956 l -0.066,1.5002 -1.45631,-0.2121 c -13.15379,-1.9656 -22.50527,1.4988 -29.12691,10.2603 l -0.63671,0.8416 -0.95868,-0.4318 c -5.784,-2.6051 -12.47333,-3.8704 -18.40563,-3.4981 v 15.7417 1.6906 h -1.65391 -11.87034 z m 3.30784,-3.3737 h 8.55516 v -16.5394 -1.6759 h 1.64659 l 14.38782,-0.1098 v -6.9744 l -14.38782,-0.1097 h -1.64659 v -1.6759 -65.199 H 116.743 v 65.199 1.6759 h -1.6393 l -14.39511,0.1097 v 6.9744 l 14.39511,0.1098 h 1.6393 v 1.6759 z m -22.752634,-13.4364 c 1.41287,-0.5989 2.88625,-1.0918 4.36905,-1.5516 l -0.96605,-0.015 v -1.676 -10.3188 -1.6686 h 1.64663 l 14.395164,-0.1169 v -1.1123 c -9.04497,-16.6788 -22.546624,-31.2041 -39.211634,-38.0846 l -0.90013,-0.3661 0.0659,-0.988 c 0.26866,-3.7279 1.00273,-9.0594 2.53948,-13.9707 1.05047,-3.3572 2.46975,-6.5505 4.50807,-8.8624 H 29.618422 c 23.937824,15.8985 36.773564,40.3859 39.745824,67.7457 10.371,-0.1461 18.64452,3.5616 24.62617,10.9848 z m -29.53677,-10.6555 c 1.46466,-0.1776 2.88316,-0.2672 4.27388,-0.3073 -2.99814,-27.4909 -15.98429,-52.0045 -40.265411,-67.7677 h -7.384177 c 19.012603,14.171 41.305318,35.0839 43.375708,68.0751 z m 48.981564,-11.1386 v -14.0511 -0.01 c -0.0336,-0.071 -0.063,-0.1417 -0.0952,-0.2122 -0.44997,-0.9921 -0.87727,-1.9867 -1.36121,-2.9712 -0.38273,-0.7781 -0.81165,-1.5464 -1.21485,-2.3199 -0.61207,-1.1751 -1.20905,-2.3555 -1.86614,-3.5201 -0.56444,-0.9997 -1.18251,-1.9862 -1.77832,-2.9786 -0.55048,-0.9172 -1.07798,-1.8405 -1.65397,-2.7517 -0.85536,-1.3522 -1.76288,-2.6929 -2.67117,-4.0324 -0.35934,-0.5301 -0.69403,-1.0672 -1.06117,-1.5954 -1.23971,-1.7825 -2.526594,-3.544 -3.849444,-5.3058 -0.054,-0.072 -0.0993,-0.1476 -0.15364,-0.2195 -0.005,-0.01 -0.0112,-0.01 -0.0148,-0.015 -1.40726,-1.8683 -2.85797,-3.7297 -4.34715,-5.5766 -1.49345,-1.8522 -3.02429,-3.6926 -4.58855,-5.5253 -0.61252,-0.7177 -1.25097,-1.4289 -1.87348,-2.1443 -0.395,0.3623 -0.82668,0.8083 -1.27338,1.3832 -0.96972,1.2479 -2.00022,2.9555 -2.89073,4.9692 -1.75071,3.9586 -2.91548,9.0983 -1.96863,14.2926 13.47851,7.155 24.554934,18.9937 32.661664,32.5812 z m -33.364254,-32.9178 c -0.83178,-5.202 0.34548,-10.2773 2.08575,-14.2121 0.91063,-2.0593 1.9639,-3.812 2.97116,-5.1082 0.46856,-0.603 0.91155,-1.0898 1.33931,-1.4856 -0.82495,-0.944 -1.63416,-1.8935 -2.47362,-2.8322 -2.33216,1.6493 -4.23696,5.1916 -5.52532,9.3089 -1.3229,4.2276 -2.02141,8.8927 -2.32722,12.3899 1.34318,0.5797 2.63062,1.2693 3.92994,1.9393 z m 144.895514,-24.2675 -0.7684,-2.4663 h 4.17874 z"
         style="color:#000000;font-style:normal;font-variant:normal;font-weight:normal;font-stretch:normal;font-size:medium;line-height:normal;font-family:Sans;-inkscape-font-specification:Sans;text-indent:0;text-align:start;text-decoration:none;text-decoration-line:none;letter-spacing:normal;word-spacing:normal;text-transform:none;writing-mode:lr-tb;direction:ltr;baseline-shift:baseline;text-anchor:start;display:inline;overflow:visible;visibility:visible;fill:#ffffff;fill-opacity:1;fill-rule:nonzero;stroke:none;stroke-width:2.68929315;marker:none;enable-background:accumulate" />
      <path
         id="rect3982-2-1-9-1-1-1-7-8-4-7"
         d="m 176.85572,2579.4873 v -0.01 c -1.97729,-0.041 -3.83732,-0.3076 -5.62042,-0.6879 -5.70607,-1.2171 -10.6284,-3.4618 -16.737,-3.2054 l -0.35862,0.022 -0.27091,-0.2488 -12.91683,-11.5995 -2.04179,-1.8369 2.71508,0.2267 c 9.6878,0.8123 18.913,4.324 27.27541,5.8473 8.3183,1.5156 15.60757,1.1619 22.0428,-5.4741 v -0.9001 c -4.55319,4.3381 -9.63033,5.9448 -14.99524,6.0449 -2.58717,0.048 -5.23689,-0.242 -7.92579,-0.7318 -8.60417,-1.5676 -17.75434,-5.0412 -27.10705,-5.8254 l -0.0438,-1.8735 c 9.68776,0.8125 19.11071,4.3606 27.47302,5.8839 8.01336,1.4601 16.2396,1.131 22.59898,-4.8228 v -1.4124 c -4.55274,4.3372 -9.631,5.9449 -14.99524,6.045 -2.58717,0.048 -5.23689,-0.2492 -7.92574,-0.7392 -8.60418,-1.5676 -17.75434,-5.0411 -27.10711,-5.8254 l -0.0438,-2.0271 c 9.68771,0.8124 19.11072,4.5215 27.47297,6.0449 8.01289,1.46 16.2398,1.1234 22.59904,-4.8301 v -1.4124 c -4.55321,4.3381 -9.6304,5.945 -14.99526,6.0449 -2.58721,0.048 -5.23689,-0.242 -7.92578,-0.7318 -8.60418,-1.5676 -17.75434,-5.0409 -27.10705,-5.8254 l -0.0438,-1.837 c 9.68775,0.8126 19.1107,4.3238 27.47301,5.8474 8.0129,1.4597 16.23975,1.1303 22.59898,-4.8228 v -1.4124 c -4.55279,4.3369 -9.6309,5.9377 -14.99524,6.0376 -2.58717,0.048 -5.23689,-0.242 -7.92574,-0.7318 -8.60417,-1.5676 -17.75435,-5.0409 -27.1071,-5.8254 l -0.0148,-0.5196 h -2.40036 v -2.6053 h 48.33754 l 1.71245,-1.5296 h 6.21324 l 1.71249,1.5296 h 48.33755 v 2.6053 h -2.17352 l 0.008,0.4977 c -9.35276,0.7842 -18.51026,4.2576 -27.11444,5.8253 -2.68885,0.4898 -5.33847,0.7874 -7.92574,0.7392 -5.3997,-0.1008 -10.5074,-1.7304 -15.08307,-6.1328 l -0.008,1.4271 c 6.3741,6.0504 14.65806,6.3785 22.71604,4.9106 8.36231,-1.5236 17.71212,-5.0349 27.39981,-5.8473 l 0.0301,1.8295 c -9.35276,0.7845 -18.50283,4.2579 -27.10706,5.8254 -2.68879,0.4898 -5.33852,0.7872 -7.92579,0.7392 -5.41054,-0.1008 -10.52956,-1.7322 -15.11231,-6.1547 l -0.008,1.4271 c 6.37385,6.0571 14.64757,6.379 22.70876,4.9105 8.3623,-1.5236 17.72668,-5.0348 27.41443,-5.8473 l 0.0148,1.8369 c -9.35277,0.7845 -18.50293,4.2505 -27.1071,5.818 -2.68885,0.4898 -5.33848,0.7872 -7.92574,0.7392 h -0.008 c -5.40551,-0.1008 -10.51815,-1.7338 -15.0977,-6.1474 l -0.008,1.4271 c 6.3737,6.0657 14.62934,6.4019 22.69414,4.9325 8.36231,-1.5233 17.74864,-5.0348 27.43639,-5.8473 v 1.8369 c -9.35276,0.7845 -18.51026,4.2578 -27.11444,5.8254 -2.68884,0.4898 -5.33847,0.7799 -7.92574,0.7318 -5.36281,-0.1 -10.44331,-1.7033 -14.9952,-6.0376 v 0.8782 c 6.4353,6.6363 13.72437,6.9968 22.04276,5.4815 8.36231,-1.5237 17.59505,-5.0349 27.28275,-5.8474 l 2.70775,-0.2267 -2.04179,1.8369 -12.90955,11.5996 -0.27091,0.2488 -0.36571,-0.03 c -6.10865,-0.2563 -11.03092,1.9957 -16.73698,3.2128 -1.78317,0.3804 -3.63585,0.6479 -5.6132,0.6879 v 0.01 c -4.25759,0.085 -9.08506,-0.9152 -14.90737,-4.0544 -5.83317,3.1498 -10.66584,4.1476 -14.92944,4.0617 z m 0.0438,-1.8223 c 3.94043,0.097 8.34677,-0.8041 13.89018,-3.7762 v -8.7162 c -6.58863,5.7914 -14.23245,6.0774 -22.20378,4.6252 -7.73837,-1.41 -15.92473,-4.3535 -24.29681,-5.5034 l 10.50908,9.448 c 6.39724,-0.1739 11.4539,2.1068 16.81019,3.2493 1.70664,0.3638 3.4488,0.6282 5.29114,0.6733 z m 28.62929,0 c 2.26308,0.055 4.36294,-0.2368 6.41089,-0.6733 5.3563,-1.1425 10.40572,-3.4221 16.80286,-3.2493 l 10.50913,-9.448 c -8.37254,1.1497 -16.55798,4.0934 -24.29686,5.5034 -7.97133,1.4522 -15.61505,1.1664 -22.20378,-4.6252 v 8.7162 c 5.02502,2.6943 9.12143,3.6878 12.77776,3.7762 z m -31.11019,-20.0449 c 5.43409,0.2095 10.38219,-1.094 14.92204,-5.2546 h -39.96535 c 6.65811,1.4186 13.08286,3.4651 18.9691,4.5374 2.09058,0.3809 4.11098,0.6415 6.07421,0.7172 z m 34.71812,-0.022 c 1.96349,-0.076 3.99097,-0.3365 6.08156,-0.7172 5.90081,-1.075 12.31679,-3.108 18.97642,-4.5154 h -39.95806 c 4.53436,4.1451 9.4738,5.4416 14.90009,5.2326 z"
         style="color:#000000;font-style:normal;font-variant:normal;font-weight:normal;font-stretch:normal;font-size:medium;line-height:normal;font-family:Sans;-inkscape-font-specification:Sans;text-indent:0;text-align:start;text-decoration:none;text-decoration-line:none;letter-spacing:normal;word-spacing:normal;text-transform:none;writing-mode:lr-tb;direction:ltr;baseline-shift:baseline;text-anchor:start;display:inline;overflow:visible;visibility:visible;fill:#ffffff;fill-opacity:1;fill-rule:nonzero;stroke:none;stroke-width:1.82343459;marker:none;enable-background:accumulate" />
      <g
         id="text919-5-7-0-5-8-0-4-7-5"
         style="font-style:normal;font-variant:normal;font-weight:normal;font-stretch:normal;font-size:11.96955967px;line-height:1.25;font-family:Lato;-inkscape-font-specification:Lato;letter-spacing:0px;word-spacing:0px;fill:#ffffff;fill-opacity:1;stroke:none;stroke-width:0.29923901"
         aria-label="TENT"
         transform="matrix(2.4138583,0,0,-2.4138583,-104.8094,5072.2182)">
        <path
           id="path1847-9-5-4-3"
           style="font-style:normal;font-variant:normal;font-weight:800;font-stretch:normal;font-family:Lato;-inkscape-font-specification:'Lato Ultra-Bold';fill:#ffffff;fill-opacity:1;stroke-width:0.29923901"
           d="m 62.311033,1049.4775 h -2.45376 v 7.1159 h -2.022855 v -7.1159 h -2.45376 v -1.6039 h 6.930375 z" />
        <path
           id="path1849-3-0-4-5"
           style="font-style:normal;font-variant:normal;font-weight:800;font-stretch:normal;font-family:Lato;-inkscape-font-specification:'Lato Ultra-Bold';fill:#ffffff;fill-opacity:1;stroke-width:0.29923901"
           d="m 65.373744,1049.4296 v 2.0348 h 2.741029 v 1.4962 h -2.741029 v 2.0767 h 3.578899 v 1.5561 h -5.613724 v -8.7198 h 5.613724 v 1.556 z" />
        <path
           id="path1851-6-3-3-6"
           style="font-style:normal;font-variant:normal;font-weight:800;font-stretch:normal;font-family:Lato;-inkscape-font-specification:'Lato Ultra-Bold';fill:#ffffff;fill-opacity:1;stroke-width:0.29923901"
           d="m 77.801327,1047.8736 v 8.7198 h -1.053321 q -0.233406,0 -0.394995,-0.072 -0.155605,-0.078 -0.311209,-0.2634 l -4.111544,-5.2007 q 0.02394,0.2334 0.02992,0.4548 0.01197,0.2155 0.01197,0.407 v 4.6741 h -1.783465 v -8.7198 h 1.065291 q 0.131665,0 0.221437,0.012 0.08977,0.012 0.161589,0.048 0.07182,0.03 0.13765,0.09 0.06583,0.06 0.149619,0.1616 l 4.147453,5.2367 q -0.02992,-0.2514 -0.04189,-0.4848 -0.01197,-0.2394 -0.01197,-0.4489 v -4.6142 z" />
        <path
           id="path1853-0-6-0-2"
           style="font-style:normal;font-variant:normal;font-weight:800;font-stretch:normal;font-family:Lato;-inkscape-font-specification:'Lato Ultra-Bold';fill:#ffffff;fill-opacity:1;stroke-width:0.29923901"
           d="m 85.759214,1049.4775 h -2.453759 v 7.1159 h -2.022856 v -7.1159 h -2.45376 v -1.6039 h 6.930375 z" />
      </g>
      <g
         id="text923-4-7-8-6-6-6-1-7-9"
         style="font-style:normal;font-variant:normal;font-weight:normal;font-stretch:normal;font-size:11.96955776px;line-height:1.25;font-family:Lato;-inkscape-font-specification:Lato;letter-spacing:0px;word-spacing:0px;fill:#ffffff;fill-opacity:1;stroke:none;stroke-width:0.29923901"
         aria-label="MAKERS"
         transform="matrix(2.4138583,0,0,-2.4138583,-104.8094,5072.2182)">
        <path
           id="path1856-2-0-8-1"
           style="font-style:normal;font-variant:normal;font-weight:900;font-stretch:normal;font-family:Lato;-inkscape-font-specification:'Lato Heavy';fill:#ffffff;fill-opacity:1;stroke-width:0.29923901"
           d="m 96.518688,1047.8138 v 8.6839 h -1.585966 v -5.3325 q 0,-0.1675 0.006,-0.359 0.01197,-0.1916 0.03591,-0.3891 l -2.483683,4.7101 q -0.203482,0.389 -0.628402,0.389 h -0.25136 q -0.209468,0 -0.371057,-0.096 -0.161589,-0.1017 -0.257345,-0.2932 l -2.495653,-4.728 q 0.01795,0.2095 0.02992,0.407 0.01197,0.1915 0.01197,0.359 v 5.3325 h -1.585967 v -8.6839 h 1.36453 q 0.11371,0 0.203482,0.01 0.08977,0.01 0.155604,0.036 0.07182,0.024 0.125681,0.084 0.05985,0.054 0.113711,0.1557 l 2.42982,4.6322 q 0.113711,0.2094 0.209467,0.4309 0.101741,0.2214 0.191513,0.4548 0.08977,-0.2394 0.185528,-0.4668 0.101741,-0.2274 0.215452,-0.4369 l 2.411866,-4.6142 q 0.05386,-0.1018 0.113711,-0.1557 0.05985,-0.06 0.12568,-0.084 0.07182,-0.03 0.155604,-0.036 0.08977,-0.01 0.209468,-0.01 z" />
        <path
           id="path1858-6-6-6-2"
           style="font-style:normal;font-variant:normal;font-weight:900;font-stretch:normal;font-family:Lato;-inkscape-font-specification:'Lato Heavy';fill:#ffffff;fill-opacity:1;stroke-width:0.29923901"
           d="m 102.91249,1053.2001 -0.93961,-2.6573 q -0.0838,-0.2094 -0.17954,-0.4907 -0.0898,-0.2813 -0.17356,-0.6105 -0.0838,0.3352 -0.17955,0.6224 -0.0898,0.2813 -0.17355,0.4908 l -0.93363,2.6453 z m 3.01633,3.2976 h -1.39446 q -0.2334,0 -0.38302,-0.1077 -0.14364,-0.1138 -0.21545,-0.2873 l -0.58651,-1.6578 h -3.459204 l -0.586508,1.6578 q -0.05985,0.1496 -0.209467,0.2753 -0.14962,0.1197 -0.377041,0.1197 h -1.406423 l 3.393373,-8.6839 h 1.83732 z" />
        <path
           id="path1860-1-3-8-7"
           style="font-style:normal;font-variant:normal;font-weight:900;font-stretch:normal;font-family:Lato;-inkscape-font-specification:'Lato Heavy';fill:#ffffff;fill-opacity:1;stroke-width:0.29923901"
           d="m 108.5163,1051.3986 h 0.3531 q 0.44288,0 0.64037,-0.2753 l 2.19642,-2.9385 q 0.1556,-0.2094 0.34113,-0.2872 0.18553,-0.084 0.45484,-0.084 h 1.55605 l -2.76497,3.5609 q -0.26932,0.3471 -0.55659,0.4967 0.20947,0.084 0.37704,0.2215 0.16758,0.1316 0.32318,0.3531 l 2.83679,4.0517 h -1.59794 q -0.1556,0 -0.26931,-0.024 -0.10773,-0.024 -0.19152,-0.066 -0.0838,-0.042 -0.14363,-0.1017 -0.0598,-0.066 -0.11371,-0.1497 l -2.23232,-3.124 q -0.11372,-0.1616 -0.26932,-0.2274 -0.1556,-0.072 -0.43689,-0.072 h -0.50272 v 3.7644 h -1.79543 v -8.6839 h 1.79543 z" />
        <path
           id="path1862-8-2-8-0"
           style="font-style:normal;font-variant:normal;font-weight:900;font-stretch:normal;font-family:Lato;-inkscape-font-specification:'Lato Heavy';fill:#ffffff;fill-opacity:1;stroke-width:0.29923901"
           d="m 116.85085,1049.2202 v 2.2323 h 2.89663 v 1.3586 h -2.89663 v 2.2802 h 3.72253 v 1.4064 h -5.52993 v -8.6839 h 5.52993 v 1.4064 z" />
        <path
           id="path1864-7-0-4-9"
           style="font-style:normal;font-variant:normal;font-weight:900;font-stretch:normal;font-family:Lato;-inkscape-font-specification:'Lato Heavy';fill:#ffffff;fill-opacity:1;stroke-width:0.29923901"
           d="m 124.63368,1051.9253 q 0.43689,0 0.75409,-0.1077 0.31719,-0.1137 0.52067,-0.3052 0.20348,-0.1975 0.29924,-0.4609 0.0958,-0.2633 0.0958,-0.5745 0,-0.6164 -0.41295,-0.9576 -0.40697,-0.3411 -1.24484,-0.3411 h -0.93362 v 2.747 z m 4.2073,4.5724 h -1.62187 q -0.45484,0 -0.65833,-0.3471 l -1.6518,-2.6633 q -0.10174,-0.1556 -0.22742,-0.2274 -0.11969,-0.072 -0.35908,-0.072 h -0.61045 v 3.3096 h -1.79544 v -8.6839 h 2.72906 q 0.90969,0 1.55605,0.1915 0.64635,0.1855 1.0593,0.5207 0.41295,0.3351 0.60447,0.8019 0.19151,0.4608 0.19151,1.0174 0,0.4309 -0.12568,0.8199 -0.1197,0.3831 -0.3531,0.7003 -0.23341,0.3172 -0.57454,0.5625 -0.34114,0.2454 -0.77802,0.395 0.17355,0.096 0.32317,0.2334 0.14962,0.1317 0.26932,0.3172 z" />
        <path
           id="path1866-9-6-3-3"
           style="font-style:normal;font-variant:normal;font-weight:900;font-stretch:normal;font-family:Lato;-inkscape-font-specification:'Lato Heavy';fill:#ffffff;fill-opacity:1;stroke-width:0.29923901"
           d="m 134.40552,1049.4775 q -0.0838,0.1377 -0.17356,0.2035 -0.0838,0.06 -0.22144,0.06 -0.13166,0 -0.28726,-0.09 -0.14962,-0.096 -0.35311,-0.2035 -0.20348,-0.1077 -0.46681,-0.1975 -0.26333,-0.096 -0.61643,-0.096 -0.62242,0 -0.93363,0.2812 -0.31121,0.2753 -0.31121,0.7242 0,0.2873 0.16758,0.4788 0.17356,0.1855 0.44886,0.3232 0.28128,0.1376 0.63438,0.2453 0.35311,0.1078 0.72416,0.2394 0.37106,0.1257 0.72416,0.2993 0.3531,0.1735 0.6284,0.4369 0.28129,0.2633 0.44886,0.6463 0.17356,0.3771 0.17356,0.9217 0,0.5925 -0.20947,1.1131 -0.20348,0.5147 -0.59249,0.9037 -0.38901,0.3831 -0.96355,0.6045 -0.56856,0.2214 -1.29271,0.2214 -0.41295,0 -0.8259,-0.084 -0.40697,-0.084 -0.78999,-0.2335 -0.37704,-0.1496 -0.71219,-0.359 -0.33515,-0.2095 -0.58651,-0.4669 l 0.52666,-0.8498 q 0.0658,-0.096 0.17356,-0.1556 0.10772,-0.066 0.22742,-0.066 0.16159,0 0.34113,0.1197 0.17955,0.1197 0.41295,0.2633 0.23341,0.1436 0.53863,0.2633 0.31121,0.1197 0.74211,0.1197 0.62841,0 0.96954,-0.2872 0.34712,-0.2873 0.34712,-0.8559 0,-0.3291 -0.17356,-0.5326 -0.16758,-0.2035 -0.44288,-0.3411 -0.2753,-0.1377 -0.6284,-0.2335 -0.3531,-0.1017 -0.72416,-0.2214 -0.37105,-0.1197 -0.72415,-0.2873 -0.35311,-0.1675 -0.62841,-0.4428 -0.2753,-0.2753 -0.44885,-0.6823 -0.16758,-0.407 -0.16758,-1.0114 0,-0.4848 0.19151,-0.9396 0.19152,-0.4549 0.56257,-0.808 0.37106,-0.3531 0.90969,-0.5685 0.54462,-0.2155 1.24483,-0.2155 0.78401,0 1.44832,0.2454 0.6703,0.2394 1.13112,0.6703 z" />
      </g>
      <g
         id="text927-7-6-1-1-1-2-1-1-6"
         style="font-style:normal;font-variant:normal;font-weight:normal;font-stretch:normal;font-size:9.41887093px;line-height:1.25;font-family:Lato;-inkscape-font-specification:Lato;letter-spacing:0px;word-spacing:0px;fill:#ffffff;fill-opacity:1;stroke:none;stroke-width:0.23547184"
         aria-label="BIBLE MISSION"
         transform="matrix(2.4138583,0,0,-2.4138583,-104.8094,5072.2182)">
        <path
           id="path1869-0-5-4-0"
           style="font-style:normal;font-variant:normal;font-weight:normal;font-stretch:normal;font-family:Lato;-inkscape-font-specification:Lato;fill:#ffffff;fill-opacity:1;stroke-width:0.23547184"
           d="m 65.185053,1064.8065 q 0.390883,0 0.673449,-0.089 0.282566,-0.09 0.461525,-0.2496 0.183668,-0.1648 0.268438,-0.3862 0.08477,-0.226 0.08477,-0.4945 0,-0.5227 -0.372045,-0.8241 -0.372045,-0.3061 -1.116136,-0.3061 h -1.459925 v 2.35 z m -1.459925,-5.3028 v 2.3029 h 1.205615 q 0.386174,0 0.66874,-0.085 0.287276,-0.085 0.470944,-0.2355 0.188377,-0.1507 0.277856,-0.3626 0.08948,-0.2166 0.08948,-0.4709 0,-0.5981 -0.357917,-0.8713 -0.357918,-0.2778 -1.111427,-0.2778 z m 1.243291,-0.7206 q 0.621645,0 1.069042,0.1225 0.452105,0.1224 0.739381,0.3485 0.291985,0.226 0.428559,0.5557 0.136573,0.3249 0.136573,0.7346 0,0.2496 -0.08006,0.4804 -0.07535,0.2261 -0.230763,0.4239 -0.155411,0.1978 -0.395592,0.3579 -0.235472,0.1554 -0.555713,0.2543 0.74409,0.1413 1.116136,0.5322 0.376755,0.3861 0.376755,1.0172 0,0.4285 -0.160121,0.7818 -0.155412,0.3532 -0.461525,0.6075 -0.301404,0.2543 -0.744091,0.3956 -0.442687,0.1365 -1.007819,0.1365 h -2.382974 v -6.7486 z" />
        <path
           id="path1871-2-5-9-6"
           style="font-style:normal;font-variant:normal;font-weight:normal;font-stretch:normal;font-family:Lato;-inkscape-font-specification:Lato;fill:#ffffff;fill-opacity:1;stroke-width:0.23547184"
           d="m 69.81899,1065.5317 h -0.91363 v -6.7486 h 0.91363 z" />
        <path
           id="path1873-3-4-2-2"
           style="font-style:normal;font-variant:normal;font-weight:normal;font-stretch:normal;font-family:Lato;-inkscape-font-specification:Lato;fill:#ffffff;fill-opacity:1;stroke-width:0.23547184"
           d="m 73.904867,1064.8065 q 0.390883,0 0.673449,-0.089 0.282566,-0.09 0.461525,-0.2496 0.183668,-0.1648 0.268438,-0.3862 0.08477,-0.226 0.08477,-0.4945 0,-0.5227 -0.372046,-0.8241 -0.372045,-0.3061 -1.116136,-0.3061 h -1.459925 v 2.35 z m -1.459925,-5.3028 v 2.3029 h 1.205616 q 0.386173,0 0.668739,-0.085 0.287276,-0.085 0.470944,-0.2355 0.188377,-0.1507 0.277857,-0.3626 0.08948,-0.2166 0.08948,-0.4709 0,-0.5981 -0.357917,-0.8713 -0.357917,-0.2778 -1.111427,-0.2778 z m 1.243291,-0.7206 q 0.621646,0 1.069042,0.1225 0.452106,0.1224 0.739381,0.3485 0.291985,0.226 0.428559,0.5557 0.136574,0.3249 0.136574,0.7346 0,0.2496 -0.08006,0.4804 -0.07535,0.2261 -0.230762,0.4239 -0.155412,0.1978 -0.395593,0.3579 -0.235472,0.1554 -0.555713,0.2543 0.744091,0.1413 1.116136,0.5322 0.376755,0.3861 0.376755,1.0172 0,0.4285 -0.160121,0.7818 -0.155411,0.3532 -0.461525,0.6075 -0.301404,0.2543 -0.74409,0.3956 -0.442687,0.1365 -1.00782,0.1365 h -2.382974 v -6.7486 z" />
        <path
           id="path1875-7-7-0-6"
           style="font-style:normal;font-variant:normal;font-weight:normal;font-stretch:normal;font-family:Lato;-inkscape-font-specification:Lato;fill:#ffffff;fill-opacity:1;stroke-width:0.23547184"
           d="m 81.453944,1064.7641 v 0.7676 h -3.828771 v -6.7486 h 0.908921 v 5.981 z" />
        <path
           id="path1877-5-6-6-1"
           style="font-style:normal;font-variant:normal;font-weight:normal;font-stretch:normal;font-family:Lato;-inkscape-font-specification:Lato;fill:#ffffff;fill-opacity:1;stroke-width:0.23547184"
           d="m 86.626524,1064.7876 -0.0047,0.7441 h -4.158432 v -6.7486 h 4.158432 v 0.7441 h -3.244801 v 2.2417 h 2.627865 v 0.7158 h -2.627865 v 2.3029 z" />
        <path
           id="path1879-9-5-8-8"
           style="font-style:normal;font-variant:normal;font-weight:normal;font-stretch:normal;font-family:Lato;-inkscape-font-specification:Lato;fill:#ffffff;fill-opacity:1;stroke-width:0.23547184"
           d="m 97.340342,1058.7831 v 6.7486 h -0.800604 v -4.959 q 0,-0.099 0.0047,-0.2119 0.0094,-0.113 0.01884,-0.2308 l -2.317042,4.2197 q -0.108317,0.2119 -0.329661,0.2119 h -0.131864 q -0.221343,0 -0.32966,-0.2119 l -2.364137,-4.2385 q 0.02826,0.2496 0.02826,0.4615 v 4.959 H 90.31857 v -6.7486 h 0.673449 q 0.122445,0 0.188377,0.024 0.06593,0.024 0.127155,0.1318 l 2.331171,4.1538 q 0.05651,0.113 0.108317,0.2354 0.05651,0.1225 0.103607,0.2496 0.04709,-0.1271 0.0989,-0.2496 0.0518,-0.1271 0.113027,-0.2402 l 2.288786,-4.149 q 0.05651,-0.1083 0.122445,-0.1318 0.07064,-0.024 0.193087,-0.024 z" />
        <path
           id="path1881-2-6-9-7"
           style="font-style:normal;font-variant:normal;font-weight:normal;font-stretch:normal;font-family:Lato;-inkscape-font-specification:Lato;fill:#ffffff;fill-opacity:1;stroke-width:0.23547184"
           d="m 99.970415,1065.5317 h -0.913631 v -6.7486 h 0.913631 z" />
        <path
           id="path1883-2-9-2-9"
           style="font-style:normal;font-variant:normal;font-weight:normal;font-stretch:normal;font-family:Lato;-inkscape-font-specification:Lato;fill:#ffffff;fill-opacity:1;stroke-width:0.23547184"
           d="m 105.13946,1059.838 q -0.0424,0.071 -0.0942,0.1083 -0.0471,0.033 -0.11773,0.033 -0.0801,0 -0.18838,-0.08 -0.10832,-0.08 -0.27315,-0.1743 -0.16012,-0.099 -0.39088,-0.179 -0.22605,-0.08 -0.551,-0.08 -0.30612,0 -0.54159,0.085 -0.23076,0.08 -0.39088,0.2213 -0.15541,0.1413 -0.23547,0.3344 -0.0801,0.1883 -0.0801,0.4097 0,0.2826 0.13658,0.4709 0.14128,0.1837 0.36733,0.3156 0.23077,0.1318 0.51804,0.2307 0.29199,0.094 0.59339,0.1978 0.30611,0.1036 0.59339,0.2355 0.29199,0.1272 0.51804,0.3249 0.23076,0.1978 0.36733,0.4851 0.14129,0.2873 0.14129,0.7064 0,0.4427 -0.1507,0.8336 -0.15071,0.3862 -0.44269,0.6735 -0.28728,0.2872 -0.71113,0.4521 -0.41914,0.1648 -0.95601,0.1648 -0.65932,0 -1.1962,-0.2355 -0.53687,-0.2402 -0.91834,-0.6452 l 0.26373,-0.4332 q 0.0377,-0.052 0.0895,-0.085 0.0565,-0.038 0.12244,-0.038 0.0612,0 0.13658,0.052 0.0801,0.047 0.17896,0.1225 0.0989,0.075 0.22605,0.1648 0.12715,0.09 0.28728,0.1648 0.16483,0.075 0.37204,0.1272 0.20722,0.047 0.46623,0.047 0.32496,0 0.57927,-0.09 0.2543,-0.089 0.42855,-0.2496 0.17896,-0.1648 0.27315,-0.3909 0.0942,-0.226 0.0942,-0.5039 0,-0.3061 -0.14128,-0.4992 -0.13658,-0.1978 -0.36263,-0.3297 -0.22605,-0.1318 -0.51804,-0.2213 -0.29198,-0.094 -0.59339,-0.1884 -0.3014,-0.099 -0.59339,-0.226 -0.29198,-0.1272 -0.51803,-0.3297 -0.22606,-0.2025 -0.36734,-0.5039 -0.13657,-0.3061 -0.13657,-0.7535 0,-0.3579 0.13657,-0.6923 0.14128,-0.3344 0.40501,-0.5934 0.26844,-0.259 0.65461,-0.4144 0.39089,-0.1554 0.8948,-0.1554 0.56513,0 1.02665,0.1789 0.46624,0.179 0.81945,0.5181 z" />
        <path
           id="path1885-8-3-6-2"
           style="font-style:normal;font-variant:normal;font-weight:normal;font-stretch:normal;font-family:Lato;-inkscape-font-specification:Lato;fill:#ffffff;fill-opacity:1;stroke-width:0.23547184"
           d="m 110.25361,1059.838 q -0.0424,0.071 -0.0942,0.1083 -0.0471,0.033 -0.11773,0.033 -0.0801,0 -0.18838,-0.08 -0.10832,-0.08 -0.27315,-0.1743 -0.16012,-0.099 -0.39088,-0.179 -0.22605,-0.08 -0.551,-0.08 -0.30612,0 -0.54159,0.085 -0.23076,0.08 -0.39088,0.2213 -0.15541,0.1413 -0.23547,0.3344 -0.0801,0.1883 -0.0801,0.4097 0,0.2826 0.13657,0.4709 0.14128,0.1837 0.36734,0.3156 0.23076,0.1318 0.51803,0.2307 0.29199,0.094 0.59339,0.1978 0.30612,0.1036 0.59339,0.2355 0.29199,0.1272 0.51804,0.3249 0.23076,0.1978 0.36733,0.4851 0.14129,0.2873 0.14129,0.7064 0,0.4427 -0.1507,0.8336 -0.15071,0.3862 -0.44269,0.6735 -0.28728,0.2872 -0.71113,0.4521 -0.41914,0.1648 -0.95601,0.1648 -0.65932,0 -1.1962,-0.2355 -0.53687,-0.2402 -0.91834,-0.6452 l 0.26373,-0.4332 q 0.0377,-0.052 0.0895,-0.085 0.0565,-0.038 0.12245,-0.038 0.0612,0 0.13657,0.052 0.0801,0.047 0.17896,0.1225 0.0989,0.075 0.22605,0.1648 0.12716,0.09 0.28728,0.1648 0.16483,0.075 0.37204,0.1272 0.20722,0.047 0.46624,0.047 0.32495,0 0.57926,-0.09 0.25431,-0.089 0.42855,-0.2496 0.17896,-0.1648 0.27315,-0.3909 0.0942,-0.226 0.0942,-0.5039 0,-0.3061 -0.14128,-0.4992 -0.13658,-0.1978 -0.36263,-0.3297 -0.22605,-0.1318 -0.51804,-0.2213 -0.29198,-0.094 -0.59339,-0.1884 -0.3014,-0.099 -0.59338,-0.226 -0.29199,-0.1272 -0.51804,-0.3297 -0.22606,-0.2025 -0.36734,-0.5039 -0.13657,-0.3061 -0.13657,-0.7535 0,-0.3579 0.13657,-0.6923 0.14128,-0.3344 0.40501,-0.5934 0.26844,-0.259 0.65461,-0.4144 0.39089,-0.1554 0.8948,-0.1554 0.56513,0 1.02665,0.1789 0.46624,0.179 0.81945,0.5181 z" />
        <path
           id="path1887-9-7-6-0"
           style="font-style:normal;font-variant:normal;font-weight:normal;font-stretch:normal;font-family:Lato;-inkscape-font-specification:Lato;fill:#ffffff;fill-opacity:1;stroke-width:0.23547184"
           d="m 112.82938,1065.5317 h -0.91363 v -6.7486 h 0.91363 z" />
        <path
           id="path1889-7-4-4-2"
           style="font-style:normal;font-variant:normal;font-weight:normal;font-stretch:normal;font-family:Lato;-inkscape-font-specification:Lato;fill:#ffffff;fill-opacity:1;stroke-width:0.23547184"
           d="m 120.7817,1062.1598 q 0,0.7582 -0.24018,1.394 -0.24018,0.631 -0.67816,1.0879 -0.43797,0.4568 -1.05491,0.7111 -0.61223,0.2496 -1.35632,0.2496 -0.74409,0 -1.35631,-0.2496 -0.61223,-0.2543 -1.05021,-0.7111 -0.43798,-0.4569 -0.67816,-1.0879 -0.24018,-0.6358 -0.24018,-1.394 0,-0.7582 0.24018,-1.3893 0.24018,-0.6358 0.67816,-1.0926 0.43798,-0.4615 1.05021,-0.7158 0.61222,-0.2543 1.35631,-0.2543 0.74409,0 1.35632,0.2543 0.61694,0.2543 1.05491,0.7158 0.43798,0.4568 0.67816,1.0926 0.24018,0.6311 0.24018,1.3893 z m -0.93717,0 q 0,-0.6217 -0.16954,-1.1162 -0.16954,-0.4944 -0.48036,-0.8335 -0.31083,-0.3438 -0.75351,-0.5275 -0.44269,-0.1836 -0.98899,-0.1836 -0.54158,0 -0.98427,0.1836 -0.44269,0.1837 -0.75822,0.5275 -0.31082,0.3391 -0.48036,0.8335 -0.16954,0.4945 -0.16954,1.1162 0,0.6216 0.16954,1.1161 0.16954,0.4898 0.48036,0.8336 0.31553,0.3391 0.75822,0.5227 0.44269,0.179 0.98427,0.179 0.5463,0 0.98899,-0.179 0.44268,-0.1836 0.75351,-0.5227 0.31082,-0.3438 0.48036,-0.8336 0.16954,-0.4945 0.16954,-1.1161 z" />
        <path
           id="path1891-3-5-9-3"
           style="font-style:normal;font-variant:normal;font-weight:normal;font-stretch:normal;font-family:Lato;-inkscape-font-specification:Lato;fill:#ffffff;fill-opacity:1;stroke-width:0.23547184"
           d="m 127.55652,1058.7831 v 6.7486 h -0.45681 q -0.10832,0 -0.18367,-0.038 -0.0706,-0.038 -0.14129,-0.1272 l -3.90412,-5.0862 q 0.009,0.1178 0.0141,0.2308 0.005,0.113 0.005,0.2119 v 4.8083 h -0.8006 v -6.7486 h 0.47094 q 0.0612,0 0.10361,0.01 0.0424,0 0.0754,0.024 0.033,0.014 0.0659,0.047 0.033,0.028 0.0706,0.075 l 3.90412,5.0815 q -0.009,-0.1224 -0.0188,-0.2355 -0.005,-0.1177 -0.005,-0.2213 v -4.7801 z" />
      </g>
    </g>
  </g>
</svg>
